HIERARCHY
ROOT Hips
{
	OFFSET -0.001795 -0.223333 0.028219
	CHANNELS 6 Xposition Yposition Zposition Zrotation Yrotation Xrotation 
	JOINT LeftUpLeg
	{
		OFFSET 0.069520 -0.091406 -0.006815
		CHANNELS 3 Zrotation Yrotation Xrotation
		JOINT LeftLeg
		{
			OFFSET 0.034277 -0.375199 -0.004496
			CHANNELS 3 Zrotation Yrotation Xrotation
			JOINT LeftFoot
			{
				OFFSET -0.013596 -0.397961 -0.043693
				CHANNELS 3 Zrotation Yrotation Xrotation
				JOINT LeftToe
				{
					OFFSET 0.026358 -0.055791 0.119288
					CHANNELS 3 Zrotation Yrotation Xrotation
					End Site
					{
						OFFSET 0.000000 0.000000 0.000000
					}
				}
			}
		}
	}
	JOINT RightUpLeg
	{
		OFFSET -0.067670 -0.090522 -0.004320
		CHANNELS 3 Zrotation Yrotation Xrotation
		JOINT RightLeg
		{
			OFFSET -0.038290 -0.382569 -0.008850
			CHANNELS 3 Zrotation Yrotation Xrotation
			JOINT RightFoot
			{
				OFFSET 0.015774 -0.398415 -0.042312
				CHANNELS 3 Zrotation Yrotation Xrotation
				JOINT RightToe
				{
					OFFSET -0.025372 -0.048144 0.123348
					CHANNELS 3 Zrotation Yrotation Xrotation
					End Site
					{
						OFFSET 0.000000 0.000000 0.000000
					}
				}
			}
		}
	}
	JOINT Spine
	{
		OFFSET -0.002533 0.108963 -0.026696
		CHANNELS 3 Zrotation Yrotation Xrotation
		JOINT Spine1
		{
			OFFSET 0.005487 0.135180 0.001092
			CHANNELS 3 Zrotation Yrotation Xrotation
			JOINT Spine2
			{
				OFFSET 0.001457 0.052922 0.025425
				CHANNELS 3 Zrotation Yrotation Xrotation
				JOINT Neck
				{
					OFFSET -0.002778 0.213870 -0.042857
					CHANNELS 3 Zrotation Yrotation Xrotation
					JOINT Head
					{
						OFFSET 0.005152 0.064970 0.051349
						CHANNELS 3 Zrotation Yrotation Xrotation
						End Site
						{
							OFFSET 0.000000 0.000000 0.000000
						}
					}
				}
				JOINT LeftShoulder
				{
					OFFSET 0.078845 0.121749 -0.034090
					CHANNELS 3 Zrotation Yrotation Xrotation
					JOINT LeftArm
					{
						OFFSET 0.090977 0.030469 -0.008868
						CHANNELS 3 Zrotation Yrotation Xrotation
						JOINT LeftForeArm
						{
							OFFSET 0.259612 -0.012772 -0.027456
							CHANNELS 3 Zrotation Yrotation Xrotation
							JOINT LeftHand
							{
								OFFSET 0.249234 0.008986 -0.001171
								CHANNELS 3 Zrotation Yrotation Xrotation
								End Site
								{
									OFFSET 0.000000 0.000000 0.000000
								}
							}
						}
					}
				}
				JOINT RightShoulder
				{
					OFFSET -0.081759 0.118833 -0.038615
					CHANNELS 3 Zrotation Yrotation Xrotation
					JOINT RightArm
					{
						OFFSET -0.096012 0.032551 -0.009143
						CHANNELS 3 Zrotation Yrotation Xrotation
						JOINT RightForeArm
						{
							OFFSET -0.253742 -0.013329 -0.021401
							CHANNELS 3 Zrotation Yrotation Xrotation
							JOINT RightHand
							{
								OFFSET -0.255298 0.007772 -0.005559
								CHANNELS 3 Zrotation Yrotation Xrotation
								End Site
								{
									OFFSET 0.000000 0.000000 0.000000
								}
							}
						}
					}
				}
			}
		}
	}
}
MOTION
Frames: 16
Frame Time: 0.050000
0.000000 0.950119 0.000000 -1.552115 3.335548 1.157905 0.180359 0.365748 4.331313 0.314401 -0.015079 -0.460344 0.572918 3.072535 4.132209 0.000000 0.000000 0.000000 3.730220 -0.026629 -0.393350 -2.189564 0.467140 3.934083 3.022059 5.717041 3.412159 0.000000 0.000000 0.000000 4.060191 -0.031587 -0.297827 0.125355 -0.040929 -0.508739 -4.448669 1.123567 6.525609 9.172860 -4.078604 -16.318511 0.000000 0.000000 0.000000 -24.473040 -2.634155 -2.066910 -48.157610 -4.047378 -3.934012 -7.828870 -20.285808 2.027206 0.000000 0.000000 0.000000 23.945320 -4.607630 -3.816306 54.251792 6.602832 -2.760409 6.536085 21.143853 1.984528 0.000000 0.000000 0.000000 
0.000247 0.950371 0.000084 -1.803295 3.183532 1.437284 0.673936 0.326242 4.200299 -0.092551 0.027610 -0.535511 1.091171 3.577214 2.948324 0.000000 0.000000 0.000000 3.803054 0.079781 -1.215010 -2.217663 0.500111 4.463128 3.445370 6.813261 3.273705 0.000000 0.000000 0.000000 4.665701 -0.011222 -0.705400 0.023955 -0.004253 -0.228498 -5.306190 1.408412 6.448160 9.948955 -4.393704 -16.946242 0.000000 0.000000 0.000000 -24.202076 -2.397224 -2.295512 -48.461952 -4.053805 -3.921660 -7.880362 -21.282954 2.120027 0.000000 0.000000 0.000000 23.509946 -5.855283 -4.423934 55.624276 6.339576 -2.889150 7.182872 22.572954 2.287472 0.000000 0.000000 0.000000 
0.000448 0.949748 0.000156 -1.540100 2.973871 1.626849 0.508057 0.308699 3.848239 -0.387580 0.040330 -0.017211 0.971492 2.911705 1.939183 0.000000 0.000000 0.000000 4.216385 0.123798 -1.596104 -2.975879 0.643467 4.944945 3.051930 6.588206 2.069137 0.000000 0.000000 0.000000 4.769921 -0.015993 -0.689915 -0.006133 0.051411 -1.349791 -5.407865 1.512982 7.182404 8.498866 -3.794876 -15.458543 0.000000 0.000000 0.000000 -23.754566 -2.779638 -1.974217 -48.649117 -3.917204 -4.073872 -8.440772 -20.620078 2.162862 0.000000 0.000000 0.000000 23.616348 -5.110512 -3.963267 55.189184 6.127368 -3.057087 7.654581 22.931107 2.422542 0.000000 0.000000 0.000000 
0.000539 0.950221 0.000486 -1.786029 3.311810 1.362544 0.519532 0.362611 4.547385 -0.380966 0.042522 -0.115014 1.072645 2.699427 0.977006 0.000000 0.000000 0.000000 4.465832 0.108597 -1.470207 -2.749316 0.638593 5.440757 3.165037 7.084814 1.752292 0.000000 0.000000 0.000000 4.879024 -0.056778 -0.167143 -0.023190 0.052562 -1.127423 -5.234978 1.232531 6.660555 8.376180 -3.622067 -15.943634 0.000000 0.000000 0.000000 -23.810988 -2.250525 -2.279931 -48.931380 -4.005950 -4.023621 -9.068557 -20.726207 2.283324 0.000000 0.000000 0.000000 23.401977 -5.372304 -4.142069 54.984910 6.268971 -2.925618 8.651528 22.955797 2.604702 0.000000 0.000000 0.000000 
0.000634 0.950599 0.000779 -1.791387 3.487115 1.258040 0.282912 0.386131 4.668435 0.157008 -0.007000 -0.253295 0.733795 2.217257 1.436549 0.000000 0.000000 0.000000 4.572941 0.078615 -1.250160 -2.860112 0.653769 5.396264 2.674179 5.932881 1.633562 0.000000 0.000000 0.000000 4.750949 -0.079719 0.153826 0.375310 -0.137990 -1.000575 -5.576334 1.660628 6.268402 8.398574 -3.665295 -15.382448 0.000000 0.000000 0.000000 -23.775752 -2.800745 -2.170750 -48.499395 -4.230383 -3.801851 -10.182229 -20.280860 2.400137 0.000000 0.000000 0.000000 23.440664 -5.549811 -4.087221 54.570665 6.155241 -2.964032 9.244540 23.260042 2.784242 0.000000 0.000000 0.000000 
0.000591 0.950687 0.001166 -1.908011 3.778937 1.138223 0.188394 0.405006 4.850642 0.545648 -0.047218 -0.215399 0.680787 1.772602 0.708021 0.000000 0.000000 0.000000 4.657047 0.059382 -1.099522 -2.748760 0.655124 5.721693 2.553354 5.735218 1.473470 0.000000 0.000000 0.000000 4.745247 -0.110184 0.543567 0.631483 -0.248578 -1.183329 -5.664085 1.498666 6.413477 8.318253 -3.600039 -15.481852 0.000000 0.000000 0.000000 -23.911503 -2.864025 -2.153856 -48.409657 -4.420830 -3.726026 -10.266652 -20.206648 2.406796 0.000000 0.000000 0.000000 23.621789 -5.466837 -4.047107 54.420329 6.376963 -2.882892 9.258915 23.757611 2.860147 0.000000 0.000000 0.000000 
0.000392 0.950576 0.001424 -1.961172 3.978978 1.098588 0.256052 0.405109 4.923842 0.686270 -0.056137 -0.335840 0.557645 1.560032 0.792765 0.000000 0.000000 0.000000 4.775349 0.078761 -1.231575 -2.844611 0.688014 6.019500 2.472881 5.653664 1.279110 0.000000 0.000000 0.000000 4.703448 -0.121557 0.696811 0.693364 -0.280785 -1.098339 -5.723661 1.290320 6.428918 8.523228 -3.704960 -15.670672 0.000000 0.000000 0.000000 -24.038241 -3.058570 -2.029237 -48.121753 -4.784049 -3.563078 -10.306787 -19.881411 2.378612 0.000000 0.000000 0.000000 23.604306 -5.299519 -3.972684 54.548847 6.518371 -2.816190 8.870700 24.385610 2.865762 0.000000 0.000000 0.000000 
0.000082 0.950204 0.001423 -2.016486 3.963752 1.066411 0.321767 0.384148 4.717479 0.632893 -0.068042 0.085378 0.765343 1.675387 0.137928 0.000000 0.000000 0.000000 4.863218 0.149973 -1.727079 -2.610694 0.689097 6.721863 2.335856 5.693246 0.628015 0.000000 0.000000 0.000000 4.613901 -0.151645 1.097270 0.830271 -0.333071 -1.339373 -5.663424 1.129085 6.777633 8.531787 -3.662989 -16.095085 0.000000 0.000000 0.000000 -23.944852 -3.429859 -1.724294 -47.815069 -5.328016 -3.377001 -10.345737 -19.811150 2.387869 0.000000 0.000000 0.000000 23.544243 -5.187221 -3.943865 54.610164 6.931066 -2.653785 8.634718 25.122236 2.914561 0.000000 0.000000 0.000000 
-0.000351 0.949733 0.001248 -2.047228 3.848723 1.194439 0.493405 0.356125 4.494306 0.347087 -0.047985 0.324433 0.980941 2.022061 -0.081999 0.000000 0.000000 0.000000 4.908375 0.244421 -2.397795 -2.484801 0.707950 7.453478 2.109394 5.331560 0.252012 0.000000 0.000000 0.000000 4.427942 -0.173704 1.405204 0.870287 -0.347376 -1.431795 -5.478657 0.870275 6.863252 8.464356 -3.593829 -16.473305 0.000000 0.000000 0.000000 -23.754902 -3.643488 -1.449444 -47.657136 -6.097634 -3.118240 -9.995329 -19.347453 2.288426 0.000000 0.000000 0.000000 23.659044 -4.544369 -3.673438 54.317974 7.532989 -2.371972 8.106084 25.778390 2.866499 0.000000 0.000000 0.000000 
-0.000820 0.949481 0.001145 -2.151831 3.794269 1.251774 0.719166 0.328837 4.321532 0.027014 -0.038102 0.978616 1.212203 2.371557 -0.373084 0.000000 0.000000 0.000000 5.164216 0.284576 -2.683941 -2.523420 0.734411 7.806281 1.951237 5.120625 -0.084206 0.000000 0.000000 0.000000 4.469886 -0.198794 1.689197 0.914394 -0.365684 -1.480383 -5.482336 0.735729 6.984615 8.525858 -3.559335 -16.992303 0.000000 0.000000 0.000000 -23.754723 -3.946207 -1.213700 -47.273738 -6.738942 -2.870890 -9.711462 -19.098273 2.219144 0.000000 0.000000 0.000000 23.694865 -4.292042 -3.571133 54.169865 8.228418 -2.061999 7.805148 26.070700 2.831008 0.000000 0.000000 0.000000 
-0.001276 0.949530 0.001351 -2.150079 3.797305 1.245559 0.813572 0.326177 4.361247 -0.093150 -0.030422 1.136032 1.165076 2.230908 -0.460966 0.000000 0.000000 0.000000 5.287175 0.295199 -2.755267 -2.512696 0.731884 7.795748 2.031369 5.409891 -0.215449 0.000000 0.000000 0.000000 4.477571 -0.235559 2.141116 0.912921 -0.363819 -1.504930 -5.393757 0.552152 7.043171 8.597562 -3.577189 -17.273599 0.000000 0.000000 0.000000 -23.469264 -4.252209 -0.933448 -47.045169 -7.372714 -2.645760 -9.346744 -19.640922 2.229099 0.000000 0.000000 0.000000 23.620116 -3.999475 -3.445503 54.229197 8.848703 -1.778467 7.178653 26.424803 2.728200 0.000000 0.000000 0.000000 
-0.001695 0.949466 0.002008 -2.102235 3.825402 1.243411 1.023307 0.319546 4.445067 -0.267453 -0.028671 1.653657 1.248324 2.392972 -0.489338 0.000000 0.000000 0.000000 5.317198 0.313912 -2.880041 -2.366892 0.705387 7.796379 2.041518 5.522928 -0.357323 0.000000 0.000000 0.000000 4.371065 -0.251349 2.384275 0.913057 -0.368089 -1.417283 -5.156001 0.199660 6.969148 8.485841 -3.467632 -17.730763 0.000000 0.000000 0.000000 -23.170765 -4.113528 -0.856287 -47.122132 -7.561489 -2.616090 -9.748407 -20.633395 2.429516 0.000000 0.000000 0.000000 23.399256 -3.801715 -3.426927 54.375996 9.030989 -1.655992 6.770128 26.733526 2.648545 0.000000 0.000000 0.000000 
-0.002312 0.949699 0.002920 -2.073905 3.707959 1.183777 1.026402 0.336554 4.658869 -0.314917 -0.037339 2.075091 1.402547 2.789523 -0.336796 0.000000 0.000000 0.000000 5.423738 0.299636 -2.784676 -2.258703 0.683199 7.735616 1.946059 5.306429 -0.415229 0.000000 0.000000 0.000000 4.231127 -0.271608 2.718445 0.994017 -0.403072 -1.480383 -4.994224 0.011183 6.966849 8.446098 -3.432614 -17.975834 0.000000 0.000000 0.000000 -23.085988 -4.111818 -0.756386 -47.121275 -7.787265 -2.559770 -9.757333 -21.646532 2.565175 0.000000 0.000000 0.000000 23.532818 -3.491768 -3.342145 53.961500 9.211172 -1.560396 6.378331 26.954252 2.565240 0.000000 0.000000 0.000000 
-0.003098 0.949444 0.003947 -2.061778 3.415538 1.238684 1.004582 0.341747 4.679357 -0.489427 -0.038400 2.764414 1.820665 3.543597 -0.630272 0.000000 0.000000 0.000000 5.411046 0.321162 -2.950457 -2.122185 0.666494 7.854517 2.142776 5.895764 -0.525842 0.000000 0.000000 0.000000 4.145666 -0.303828 3.163353 0.841200 -0.328267 -1.593290 -4.618430 -0.130418 6.798960 8.271068 -3.316282 -18.240215 0.000000 0.000000 0.000000 -22.757543 -3.757870 -0.814004 -47.324182 -7.831678 -2.579840 -10.061729 -22.923486 2.796910 0.000000 0.000000 0.000000 23.230238 -3.191292 -3.248427 53.942920 8.852828 -1.674252 6.340194 27.552910 2.595331 0.000000 0.000000 0.000000 
-0.004151 0.949074 0.004989 -1.991905 3.594714 1.213876 1.159814 0.337302 4.769719 -0.632877 -0.038897 3.328892 1.795205 3.450991 -0.709974 0.000000 0.000000 0.000000 5.317445 0.334621 -3.030881 -1.886893 0.624314 7.887641 2.260078 6.191320 -0.503642 0.000000 0.000000 0.000000 4.058047 -0.323148 3.459582 0.890546 -0.348588 -1.628421 -4.592205 -0.346452 6.718408 8.258927 -3.286993 -18.435942 0.000000 0.000000 0.000000 -22.469306 -3.526473 -0.880541 -47.488349 -8.055453 -2.511048 -10.283312 -23.797803 2.958322 0.000000 0.000000 0.000000 23.267341 -3.166055 -3.278418 53.939364 8.926636 -1.624989 6.021080 27.311040 2.486730 0.000000 0.000000 0.000000 
-0.005446 0.948257 0.006073 -1.951222 3.310889 1.285208 1.406479 0.300253 4.446954 -0.846739 -0.059127 4.929472 2.124632 4.014957 -1.037427 0.000000 0.000000 0.000000 5.222063 0.387993 -3.418364 -1.571016 0.587074 8.274309 2.556548 7.029603 -0.582841 0.000000 0.000000 0.000000 3.977784 -0.323111 3.498870 0.738046 -0.274195 -1.746805 -4.165949 -0.393403 6.986605 8.115378 -3.284256 -18.185313 0.000000 0.000000 0.000000 -22.414051 -3.332976 -0.883206 -47.842215 -7.885540 -2.648181 -10.288579 -24.964754 3.130290 0.000000 0.000000 0.000000 22.932017 -3.090388 -3.274263 54.060292 8.552669 -1.798508 5.873482 27.714128 2.482399 0.000000 0.000000 0.000000 
